<?xml version="1.0" encoding="iso-8859-1"?>
<!-- Generator: Adobe Illustrator 19.0.0, SVG Export Plug-In . SVG Version: 6.00 Build 0)  -->
<svg version="1.1" id="Capa_1" xmlns="http://www.w3.org/2000/svg" xmlns:xlink="http://www.w3.org/1999/xlink" x="0px" y="0px"
	 viewBox="0 0 511.751 511.751" style="enable-background:new 0 0 511.751 511.751;" xml:space="preserve">
<g>
	<g>
		<path d="M426.542,153.351c-18.914,0-35.449,10.311-44.314,25.6h-92.219v-41.546c32.417,1.602,64.921,5.425,97.391,11.485
			c0.077,0.009,0.154,0.026,0.23,0.034c1.758,0.282,3.516,0.418,5.265,0.418c7.962,0,15.701-2.825,21.854-8.064
			c7.492-6.409,11.793-15.744,11.793-25.6V55.024c0-21.265-15.241-39.1-36.011-42.377C300.53-4.214,209.906-4.206,121.458,12.613
			c-21.001,3.311-36.25,21.146-36.25,42.411v60.655c0,9.856,4.301,19.191,11.793,25.6c7.492,6.4,17.365,9.199,27.383,7.603
			c32.188-6.144,64.683-9.991,97.357-11.55v41.619h-92.219c-8.865-15.289-25.401-25.6-44.314-25.6c-28.237,0-51.2,22.963-51.2,51.2
			v179.2c0,28.237,22.963,51.2,51.2,51.2c2.909,0,5.759-0.257,8.537-0.725v43.392c0,3.712,2.389,6.989,5.922,8.124
			c53.282,17.109,105.83,25.856,156.237,26.01c50.347-0.154,102.895-8.9,156.177-26.01c3.533-1.135,5.931-4.412,5.931-8.124v-43.39
			c2.776,0.467,5.623,0.724,8.53,0.724c28.237,0,51.2-22.963,51.2-51.2v-179.2C477.742,176.314,454.779,153.351,426.542,153.351z
			 M121.458,132.08c-4.821,0.725-9.668-0.631-13.363-3.78c-3.695-3.166-5.82-7.765-5.82-12.621V55.024
			c0-12.817,9.19-23.561,22.11-25.609c43.281-8.235,87.014-12.348,130.953-12.348c43.998,0,88.192,4.13,132.292,12.39
			c12.655,2.005,21.845,12.749,21.845,25.566v60.655c0,4.864-2.116,9.463-5.82,12.621c-3.661,3.132-8.457,4.565-13.252,3.789
			C300.095,115.252,209.514,115.261,121.458,132.08z M238.809,136.882c11.401-0.265,22.818-0.273,34.133,0.026v42.044h-34.133
			V136.882z M51.076,383.751v-179.2c0-18.825,15.309-34.133,34.133-34.133c13.788,0,25.681,8.217,31.063,20.009
			c0.136,0.37,0.29,0.731,0.474,1.075c1.67,4.023,2.597,8.429,2.597,13.05v179.2c0,13.793-8.223,25.689-20.021,31.068
			c-0.362,0.134-0.716,0.285-1.053,0.464c-4.025,1.673-8.435,2.601-13.059,2.601C66.384,417.884,51.076,402.576,51.076,383.751z
			 M400.946,471.363c-49.579,15.334-98.355,23.177-145.041,23.322c-46.737-0.145-95.522-7.987-145.092-23.322v-43.299
			c15.287-8.866,25.597-25.4,25.597-44.312v-179.2c0-2.908-0.256-5.756-0.724-8.533h94.591h51.2h94.591
			c-0.468,2.777-0.724,5.625-0.724,8.533v179.2c0,18.915,10.312,35.451,25.603,44.316V471.363z M460.676,383.751
			c0,18.825-15.309,34.133-34.133,34.133c-4.618,0-9.022-0.926-13.043-2.594c-0.347-0.185-0.711-0.34-1.084-0.477
			c-11.79-5.382-20.007-17.275-20.007-31.062v-179.2c0-4.628,0.93-9.042,2.605-13.07c0.176-0.332,0.325-0.679,0.457-1.035
			c5.378-11.802,17.276-20.028,31.071-20.028c18.825,0,34.133,15.309,34.133,34.133V383.751z"/>
	</g>
</g>
<g>
</g>
<g>
</g>
<g>
</g>
<g>
</g>
<g>
</g>
<g>
</g>
<g>
</g>
<g>
</g>
<g>
</g>
<g>
</g>
<g>
</g>
<g>
</g>
<g>
</g>
<g>
</g>
<g>
</g>
</svg>
